<?xml version="1.0" encoding="UTF-8" standalone="no"?>
<svg fill="#0000ff" height="384" width="384" viewBox="0 0 24 24" version="1.1" id="hiit" xmlns="http://www.w3.org/2000/svg" xmlns:xlink="http://www.w3.org/1999/xlink">
  <path
     d="m 16.5,5.25 a 2,2 0 0 0 2,-2 2,2 0 0 0 -2,-2 2,2 0 0 0 -2,2 2,2 0 0 0 2,2 m -3.6,13.9 1,-4.4 2.1,2 v 6 h 2 v -7.5 l -2.1,-2 0.6,-3 c 1.39,1.59 3.39,2.5 5.5,2.5 v -2 c -1.76,0.03 -3.4,-0.89 -4.3,-2.4 l -1,-1.6 c -0.36,-0.6 -1,-1 -1.7,-1 -0.3,0 -0.5,0.1 -0.8,0.1 L 9,8.05 v 4.7 h 2 v -3.4 l 1.8,-0.7 -1.6,8.1 -4.9,-1 -0.4,2 7,1.4 M 4,8.75 a 1,1 0 0 1 -1,-1 1,1 0 0 1 1,-1 h 3 v 2 H 4 m 1,-4 a 1,1 0 0 1 -1,-1 1,1 0 0 1 1,-1 h 5 v 2 H 5 m -2,8 a 1,1 0 0 1 -1,-1 1,1 0 0 1 1,-1 h 4 v 2 z"/>
</svg>
